<svg width="395" height="96" viewBox="0 0 395 96" fill="none" xmlns="http://www.w3.org/2000/svg">
    <path d="M282.917 0.822512H264.217L281.747 6.66667L282.917 0.822512Z" fill="white"/>
    <path fill-rule="evenodd" clip-rule="evenodd" d="M294.489 51.1788C290.48 51.1788 286.987 50.3258 284.01 48.6199C281.094 46.853 279.029 44.2636 277.814 40.8517C276.599 37.4398 276.477 33.2053 277.449 28.1484L281.747 6.66667L282.917 0.822512H300.23L297.034 16.9052L287.12 18.3333L296.221 21L295.127 26.5033C294.459 29.6715 294.641 32.1086 295.674 33.8146C296.768 35.5205 298.681 36.3735 301.415 36.3735C304.331 36.3735 306.761 35.4901 308.705 33.7232C310.71 31.8954 312.076 29.0927 312.805 25.3152L317.726 0.822512H335.04L329.441 29L317.726 30.6667L328.342 34.5325L325.198 50.3563H308.796L309.827 45.2547C308.373 46.6182 306.784 47.7399 305.06 48.6199C301.658 50.3258 298.134 51.1788 294.489 51.1788Z" fill="white"/>
    <path d="M375.753 29L361.473 31.3333L374.657 34.5325L375.753 29Z" fill="white"/>
    <path fill-rule="evenodd" clip-rule="evenodd" d="M387.744 2.65033C384.828 0.883444 381.275 0 377.083 0C373.438 0 369.854 0.85298 366.33 2.55894C364.609 3.40684 363.023 4.50309 361.572 5.84767L362.594 0.822512H346.192L336.35 50.3563H353.664L358.585 25.8636C359.374 22.0861 360.772 19.2834 362.776 17.4556C364.781 15.6278 367.241 14.7139 370.157 14.7139C373.013 14.7139 374.957 15.5669 375.989 17.2729C377.083 18.9788 377.295 21.4159 376.627 24.5841L375.753 29L374.657 34.5325L371.524 50.3563H388.838L394.305 22.9391L383.381 19L394.986 17.4556C395.072 14.7586 394.723 12.3824 393.941 10.3272C392.726 6.91523 390.66 4.35629 387.744 2.65033Z" fill="white"/>
    <path d="M32.1398 3.74702C36.6352 1.24901 41.8597 0 47.8132 0H21.6605L32.1398 3.74702Z" fill="white"/>
    <path d="M17.9244 28.6053L0 32.3333L18.8958 35.551C18.2482 33.4072 17.9244 31.0919 17.9244 28.6053Z" fill="white"/>
    <path d="M30.3173 48.4371C34.266 50.2649 38.883 51.1788 44.1682 51.1788C47.8739 51.1788 51.5189 50.6914 55.1031 49.7166C58.7481 48.7417 62.1197 47.0967 65.2179 44.7815L58.0191 33.906C56.4396 35.1854 54.5867 36.1907 52.4605 36.9219C50.395 37.5921 48.2688 37.9272 46.0818 37.9272C42.3153 37.9272 39.4905 37.1351 37.6072 35.551C36.0962 34.231 35.1913 32.3423 34.8927 29.8848H31.5019L33.1421 20.7457H35.8706C35.9307 20.5617 35.9931 20.3789 36.0581 20.1974C36.9694 17.7603 38.3059 15.8411 40.0676 14.4397C41.8901 13.0384 44.1986 12.3378 46.993 12.3378C49.18 12.3378 51.0025 12.7947 52.4605 13.7086C53.9792 14.5616 55.0424 15.8106 55.6499 17.4556C56.052 18.4089 56.2451 19.5056 56.2293 20.7457H63.122L55.9232 23.396C56.1055 22.505 56.2066 21.6696 56.2265 20.8899C56.2277 20.8416 56.2287 20.7936 56.2293 20.7457H35.8706C35.1451 22.9704 34.7824 25.377 34.7824 27.9656C34.7824 28.6053 34.8155 29.214 34.8817 29.7916C34.8853 29.8228 34.8889 29.8538 34.8927 29.8848H71.141C71.4447 28.6053 71.6877 27.2954 71.87 25.955C72.0522 24.6146 72.1433 23.2133 72.1433 21.751C72.1433 19.5855 71.8922 17.5574 71.3898 15.6667L59.748 12.3378L69.1363 10.4185C67.1923 7.12847 64.3978 4.56954 60.7528 2.74172C57.1686 0.913907 52.8554 0 47.8132 0C41.8597 0 36.6352 1.24901 32.1398 3.74702C27.6443 6.24503 24.1512 9.65696 21.6605 13.9828C19.1698 18.2477 17.9244 23.1219 17.9244 28.6053C17.9244 31.0919 18.2482 33.4072 18.8958 35.551C19.4383 37.3468 20.208 39.0223 21.2049 40.5775C23.3918 43.9285 26.4293 46.5484 30.3173 48.4371Z" fill="white"/>
    <path fill-rule="evenodd" clip-rule="evenodd" d="M34.8817 29.7916C34.8853 29.8228 34.8889 29.8538 34.8927 29.8848H31.5019L33.1421 20.7457H35.8706C35.1451 22.9704 34.7824 25.377 34.7824 27.9656C34.7824 28.6053 34.8155 29.214 34.8817 29.7916ZM63.122 20.7457L55.9232 23.396C56.1055 22.505 56.2066 21.6696 56.2265 20.8899C56.2277 20.8416 56.2287 20.7936 56.2293 20.7457H63.122Z" fill="white"/>
    <path d="M118.246 0.822512H103.231L114.716 6.66667L118.246 0.822512Z" fill="white"/>
    <path fill-rule="evenodd" clip-rule="evenodd" d="M87.2636 50.3563L76.7843 0.822512H93.9157L99.9149 31.1738L114.716 6.66667L118.246 0.822512H135.377L111.17 40.5775L101.961 41.5237L94.269 42.3139L108.61 44.7815L105.215 50.3563H87.2636Z" fill="white"/>
    <path fill-rule="evenodd" clip-rule="evenodd" d="M142.71 48.4371C146.659 50.2649 151.276 51.1788 156.561 51.1788C160.266 51.1788 163.911 50.6914 167.496 49.7166C171.141 48.7417 174.512 47.0967 177.61 44.7815L170.412 33.906C168.832 35.1854 166.979 36.1907 164.853 36.9219C162.788 37.5921 160.661 37.9272 158.474 37.9272C154.708 37.9272 151.883 37.1351 150 35.551C148.489 34.231 147.584 32.3423 147.285 29.8848H183.534C183.837 28.6053 184.08 27.2954 184.263 25.955C184.445 24.6146 184.536 23.2133 184.536 21.751C184.536 18.2551 183.881 15.1174 182.572 12.3378L168.316 10.4185L178.636 6.66667C177.093 5.11169 175.262 3.80338 173.145 2.74172C169.561 0.913907 165.248 0 160.206 0C154.252 0 149.028 1.24901 144.532 3.74702C140.037 6.24503 136.544 9.65696 134.053 13.9828C131.562 18.2477 130.317 23.1219 130.317 28.6053C130.317 33.1748 131.41 37.1656 133.597 40.5775C135.784 43.9285 138.822 46.5484 142.71 48.4371ZM148.263 20.7457C148.323 20.5617 148.386 20.3789 148.451 20.1974C149.362 17.7603 150.698 15.8411 152.46 14.4397C154.283 13.0384 156.591 12.3378 159.386 12.3378C161.573 12.3378 163.395 12.7947 164.853 13.7086C166.372 14.5616 167.435 15.8106 168.042 17.4556C168.445 18.4089 168.638 19.5056 168.622 20.7457H148.263Z" fill="white"/>
    <path fill-rule="evenodd" clip-rule="evenodd" d="M237.443 17.1358H196.703V0H237.443C252.348 0 264.431 12.1182 264.431 27.0667C264.431 40.6904 254.395 51.9631 241.333 53.8543L271.108 83.9256L258.985 96L247.029 83.9256L200.564 36.9977H237.443C242.912 36.9977 247.345 32.5514 247.345 27.0667C247.345 21.582 242.912 17.1358 237.443 17.1358Z" fill="#89C527"/>
    <g opacity="0.5">
        <path d="M20.209 90.2966L23.349 73.8457H25.7265L30.302 85.9019L29.0684 85.8784L38.0175 73.8457H40.5296L37.3895 90.2966H34.6308L36.8961 78.3109L37.5465 78.3344L29.9656 88.4165H28.6647L24.6948 78.3109L25.2555 78.3814L22.9902 90.2966H20.209Z" fill="white"/>
        <path d="M47.2824 90.4611C46.1161 90.4611 45.0919 90.2339 44.2097 89.7796C43.3424 89.3095 42.6695 88.6672 42.1911 87.8525C41.7126 87.0221 41.4733 86.0507 41.4733 84.9383C41.4733 83.5282 41.7799 82.2748 42.3929 81.1781C43.006 80.0657 43.8433 79.1962 44.905 78.5695C45.9816 77.9271 47.2077 77.6059 48.5833 77.6059C49.7646 77.6059 50.7888 77.8331 51.6561 78.2874C52.5383 78.7261 53.2186 79.3607 53.6971 80.191C54.1756 81.0058 54.4148 81.9771 54.4148 83.1052C54.4148 84.4996 54.1083 85.753 53.4952 86.8654C52.8822 87.9778 52.0374 88.8552 50.9608 89.4975C49.8991 90.1399 48.673 90.4611 47.2824 90.4611ZM47.4619 87.9465C48.2693 87.9465 48.9795 87.7506 49.5926 87.3589C50.2057 86.9516 50.6916 86.3954 51.0505 85.6903C51.4093 84.9853 51.5888 84.1706 51.5888 83.2462C51.5888 82.2748 51.3122 81.5071 50.7589 80.9431C50.2057 80.3791 49.4281 80.097 48.4263 80.097C47.6338 80.097 46.9236 80.3007 46.2956 80.7081C45.6825 81.0998 45.1965 81.6481 44.8377 82.3532C44.4788 83.0582 44.2994 83.8729 44.2994 84.7973C44.2994 85.7843 44.576 86.5599 45.1293 87.1239C45.6825 87.6723 46.46 87.9465 47.4619 87.9465Z" fill="white"/>
        <path d="M58.6961 90.2966L55.9374 77.7469H58.6961L61.0736 88.816H59.6606L66.2771 77.7469H69.1031L61.5894 90.2966H58.6961Z" fill="white"/>
        <path d="M74.1379 90.4611C72.9417 90.4611 71.9025 90.2339 71.0203 89.7796C70.1381 89.3095 69.4503 88.6672 68.9568 87.8525C68.4783 87.0221 68.2391 86.0507 68.2391 84.9383C68.2391 83.5126 68.5381 82.2513 69.1362 81.1546C69.7344 80.0579 70.5493 79.1962 71.581 78.5695C72.6277 77.9271 73.8164 77.6059 75.1472 77.6059C76.2686 77.6059 77.2406 77.8253 78.063 78.2639C78.8853 78.7026 79.5208 79.3372 79.9694 80.1675C80.4329 80.9823 80.6647 81.9615 80.6647 83.1052C80.6647 83.4029 80.6498 83.7084 80.6198 84.0218C80.5899 84.3351 80.5451 84.625 80.4853 84.8913H70.325L70.639 82.9407H79.162L78.0181 83.5987C78.1377 82.7997 78.0854 82.1338 77.8611 81.6011C77.6368 81.0684 77.2779 80.6611 76.7845 80.3791C76.2911 80.097 75.7004 79.956 75.0126 79.956C74.1902 79.956 73.4725 80.1597 72.8594 80.5671C72.2613 80.9588 71.7978 81.5228 71.4689 82.2592C71.1399 82.9799 70.9754 83.8259 70.9754 84.7973C70.9754 85.8157 71.252 86.5991 71.8053 87.1474C72.3735 87.6958 73.2482 87.97 74.4295 87.97C75.1023 87.97 75.7453 87.8603 76.3584 87.6409C76.9714 87.4059 77.4798 87.0848 77.8835 86.6774L79.0498 88.722C78.4218 89.3017 77.6742 89.7404 76.8069 90.0381C75.9546 90.3201 75.065 90.4611 74.1379 90.4611Z" fill="white"/>
        <path d="M92.698 90.4611C91.9205 90.4611 91.2476 90.2888 90.6794 89.9441C90.1261 89.5837 89.7224 89.0824 89.4682 88.44C89.229 87.782 89.1916 87.0064 89.3561 86.1134L91.4868 74.9738H94.2904L92.1597 86.0899C92.07 86.6696 92.1298 87.1396 92.3391 87.4999C92.5485 87.8603 92.9447 88.0405 93.5279 88.0405C93.797 88.0405 94.0662 88.0013 94.3353 87.923C94.6194 87.829 94.8736 87.7036 95.0979 87.5469L95.5913 89.7091C95.1726 89.9911 94.7091 90.1869 94.2007 90.2966C93.6923 90.4063 93.1914 90.4611 92.698 90.4611ZM88.5486 80.191L88.9972 77.8409H96.9595L96.5109 80.191H88.5486Z" fill="white"/>
        <path d="M103.245 90.4611C102.079 90.4611 101.055 90.2339 100.172 89.7796C99.3052 89.3095 98.6323 88.6672 98.1538 87.8525C97.6753 87.0221 97.4361 86.0507 97.4361 84.9383C97.4361 83.5282 97.7426 82.2748 98.3557 81.1781C98.9687 80.0657 99.8061 79.1962 100.868 78.5695C101.944 77.9271 103.17 77.6059 104.546 77.6059C105.727 77.6059 106.752 77.8331 107.619 78.2874C108.501 78.7261 109.181 79.3607 109.66 80.191C110.138 81.0058 110.378 81.9771 110.378 83.1052C110.378 84.4996 110.071 85.753 109.458 86.8654C108.845 87.9778 108 88.8552 106.924 89.4975C105.862 90.1399 104.636 90.4611 103.245 90.4611ZM103.425 87.9465C104.232 87.9465 104.942 87.7506 105.555 87.3589C106.168 86.9516 106.654 86.3954 107.013 85.6903C107.372 84.9853 107.552 84.1706 107.552 83.2462C107.552 82.2748 107.275 81.5071 106.722 80.9431C106.168 80.3791 105.391 80.097 104.389 80.097C103.597 80.097 102.886 80.3007 102.258 80.7081C101.645 81.0998 101.159 81.6481 100.8 82.3532C100.442 83.0582 100.262 83.8729 100.262 84.7973C100.262 85.7843 100.539 86.5599 101.092 87.1239C101.645 87.6723 102.423 87.9465 103.425 87.9465Z" fill="white"/>
        <path d="M122.756 80.6846H130.584L130.113 83.1992H122.285L122.756 80.6846ZM121.635 87.735H130.516L130.023 90.2966H118.248L121.388 73.8457H132.849L132.356 76.4073H123.788L121.635 87.735Z" fill="white"/>
        <path d="M138.278 90.4611C137.306 90.4611 136.416 90.2418 135.609 89.8031C134.816 89.3644 134.181 88.7377 133.702 87.923C133.239 87.0926 133.007 86.0977 133.007 84.9383C133.007 83.8729 133.171 82.8937 133.5 82.0006C133.844 81.1076 134.323 80.3321 134.936 79.674C135.549 79.016 136.259 78.5068 137.067 78.1464C137.889 77.7861 138.786 77.6059 139.758 77.6059C140.76 77.6059 141.62 77.7939 142.337 78.1699C143.07 78.546 143.623 79.1178 143.997 79.8855C144.371 80.6376 144.543 81.5776 144.513 82.7057C144.483 84.2568 144.214 85.6198 143.706 86.7949C143.197 87.9543 142.487 88.8552 141.575 89.4975C140.663 90.1399 139.564 90.4611 138.278 90.4611ZM138.995 87.9465C139.803 87.9465 140.513 87.7506 141.126 87.3589C141.739 86.9516 142.225 86.3954 142.584 85.6903C142.943 84.9853 143.122 84.1706 143.122 83.2462C143.122 82.2748 142.846 81.5071 142.293 80.9431C141.739 80.3791 140.962 80.097 139.96 80.097C139.167 80.097 138.457 80.3007 137.829 80.7081C137.216 81.0998 136.73 81.6481 136.371 82.3532C136.012 83.0582 135.833 83.8729 135.833 84.7973C135.833 85.7687 136.11 86.5364 136.663 87.1004C137.216 87.6644 137.994 87.9465 138.995 87.9465ZM141.934 90.2966L142.472 87.4294L143.235 84.0923L143.616 80.7316L144.177 77.7469H146.98L144.603 90.2966H141.934Z" fill="white"/>
        <path d="M148.271 90.2966L150.648 77.7469H153.317L152.645 81.3191L152.398 80.2851C152.951 79.2667 153.654 78.5695 154.506 78.1934C155.358 77.8017 156.398 77.6059 157.624 77.6059L157.108 80.4026C156.988 80.3712 156.876 80.3556 156.771 80.3556C156.667 80.3399 156.547 80.3321 156.413 80.3321C155.321 80.3321 154.416 80.6376 153.699 81.2486C152.981 81.844 152.502 82.7997 152.263 84.1158L151.074 90.2966H148.271Z" fill="white"/>
        <path d="M166.484 77.6059C167.516 77.6059 168.39 77.8253 169.108 78.2639C169.826 78.7026 170.327 79.3528 170.611 80.2145C170.91 81.0606 170.94 82.1025 170.701 83.3402L169.377 90.2966H166.574L167.875 83.4107C168.069 82.3923 167.979 81.6011 167.605 81.0371C167.232 80.4574 166.551 80.1675 165.564 80.1675C164.533 80.1675 163.68 80.4652 163.008 81.0606C162.335 81.656 161.879 82.5647 161.639 83.7867L160.383 90.2966H157.58L159.957 77.7469H162.626L161.953 81.3191L161.505 80.191C162.073 79.298 162.783 78.6478 163.636 78.2404C164.503 77.8174 165.452 77.6059 166.484 77.6059Z" fill="white"/>
    </g>
    <path opacity="0.5" fill-rule="evenodd" clip-rule="evenodd" d="M181.795 77.5381H191.069V86.8572H188.42V82.0834L180.083 90.4612L178.209 88.5784L186.546 80.2007H181.795V77.5381Z" fill="white"/>
</svg>