<svg width="215" height="52" viewBox="0 0 215 52" fill="none" xmlns="http://www.w3.org/2000/svg">
    <path d="M153.993 0.445527H143.814L153.356 3.61111L153.993 0.445527Z" fill="black"/>
    <path fill-rule="evenodd" clip-rule="evenodd" d="M160.292 27.7219C158.11 27.7219 156.208 27.2598 154.588 26.3358C153.001 25.3787 151.877 23.9761 151.215 22.128C150.554 20.2799 150.488 17.9862 151.017 15.247L153.356 3.61111L153.993 0.445527H163.417L161.677 9.15697L156.281 9.93056L161.234 11.375L160.639 14.356C160.275 16.0721 160.375 17.3922 160.937 18.3162C161.532 19.2403 162.574 19.7023 164.061 19.7023C165.649 19.7023 166.971 19.2238 168.029 18.2667C169.121 17.2767 169.865 15.7586 170.261 13.7124L172.94 0.445527H182.364L179.316 15.7083L172.94 16.6111L178.718 18.7051L177.007 27.2763H168.079L168.64 24.5129C167.849 25.2515 166.984 25.8591 166.045 26.3358C164.194 27.2598 162.276 27.7219 160.292 27.7219Z" fill="black"/>
    <path d="M204.524 15.7083L196.751 16.9722L203.928 18.7051L204.524 15.7083Z" fill="black"/>
    <path fill-rule="evenodd" clip-rule="evenodd" d="M211.051 1.4356C209.464 0.478532 207.529 0 205.248 0C203.264 0 201.313 0.462031 199.395 1.38609C198.458 1.84537 197.595 2.43917 196.805 3.16749L197.362 0.445527H188.434L183.077 27.2763H192.501L195.179 14.0094C195.609 11.9633 196.37 10.4452 197.461 9.45513C198.552 8.46507 199.891 7.97004 201.478 7.97004C203.032 7.97004 204.091 8.43207 204.653 9.35613C205.248 10.2802 205.364 11.6003 205 13.3164L204.524 15.7083L203.928 18.7051L202.222 27.2763H211.646L214.622 12.4253L208.676 10.2917L214.992 9.45513C215.039 7.99424 214.85 6.70715 214.424 5.59387C213.762 3.74575 212.638 2.35966 211.051 1.4356Z" fill="black"/>
    <path d="M17.4938 2.02963C19.9407 0.676545 22.7844 0 26.0249 0H11.7899L17.4938 2.02963Z" fill="black"/>
    <path d="M9.75631 15.4945L0 17.5139L10.2851 19.2568C9.93257 18.0956 9.75631 16.8415 9.75631 15.4945Z" fill="black"/>
    <path d="M16.5018 26.2368C18.6511 27.2268 21.1642 27.7219 24.0409 27.7219C26.058 27.7219 28.0419 27.4578 29.9928 26.9298C31.9768 26.4018 33.812 25.5107 35.4984 24.2566L31.58 18.3657C30.7203 19.0588 29.7118 19.6033 28.5545 19.9993C27.4302 20.3624 26.2729 20.5439 25.0825 20.5439C23.0324 20.5439 21.4948 20.1149 20.4698 19.2568C19.6473 18.5418 19.1548 17.5188 18.9922 16.1876H17.1466L18.0394 11.2373H19.5245C19.5572 11.1376 19.5912 11.0386 19.6266 10.9402C20.1226 9.62014 20.85 8.58058 21.8089 7.82153C22.8009 7.06248 24.0574 6.68295 25.5785 6.68295C26.7689 6.68295 27.7609 6.93047 28.5545 7.4255C29.3811 7.88753 29.9598 8.56408 30.2904 9.45514C30.5093 9.97149 30.6144 10.5655 30.6058 11.2373H34.3576L30.4392 12.6729C30.5384 12.1902 30.5934 11.7377 30.6043 11.3154C30.605 11.2892 30.6055 11.2632 30.6058 11.2373H19.5245C19.1296 12.4423 18.9322 13.7459 18.9322 15.148C18.9322 15.4945 18.9502 15.8242 18.9862 16.1371C18.9882 16.154 18.9902 16.1708 18.9922 16.1876H38.7223C38.8876 15.4945 39.0199 14.785 39.1191 14.0589C39.2183 13.3329 39.2679 12.5738 39.2679 11.7818C39.2679 10.6088 39.1312 9.51024 38.8577 8.48611L32.521 6.68295L37.6311 5.64338C36.573 3.86126 35.052 2.47517 33.068 1.4851C31.1171 0.495033 28.7694 0 26.0249 0C22.7844 0 19.9407 0.676545 17.4938 2.02963C15.0469 3.38273 13.1456 5.23085 11.7899 7.57401C10.4342 9.88417 9.75631 12.5243 9.75631 15.4945C9.75631 16.8415 9.93257 18.0956 10.2851 19.2568C10.5803 20.2295 10.9993 21.1371 11.5419 21.9795C12.7323 23.7946 14.3856 25.2137 16.5018 26.2368Z" fill="black"/>
    <path fill-rule="evenodd" clip-rule="evenodd" d="M18.9862 16.1371C18.9882 16.154 18.9902 16.1708 18.9922 16.1876H17.1466L18.0394 11.2373H19.5245C19.1296 12.4423 18.9322 13.7459 18.9322 15.148C18.9322 15.4945 18.9502 15.8242 18.9862 16.1371ZM34.3576 11.2373L30.4392 12.6729C30.5384 12.1902 30.5934 11.7377 30.6043 11.3154C30.605 11.2892 30.6055 11.2632 30.6058 11.2373H34.3576Z" fill="black"/>
    <path d="M64.3617 0.445527H56.1891L62.4405 3.61111L64.3617 0.445527Z" fill="black"/>
    <path fill-rule="evenodd" clip-rule="evenodd" d="M47.4979 27.2763L41.794 0.445527H51.1186L54.384 16.8858L62.4405 3.61111L64.3617 0.445527H73.6863L60.51 21.9795L55.4976 22.492L51.311 22.92L59.1167 24.2566L57.269 27.2763H47.4979Z" fill="black"/>
    <path fill-rule="evenodd" clip-rule="evenodd" d="M77.6775 26.2368C79.8268 27.2268 82.3399 27.7219 85.2166 27.7219C87.2337 27.7219 89.2176 27.4578 91.1685 26.9298C93.1525 26.4018 94.9877 25.5107 96.6741 24.2566L92.7557 18.3657C91.896 19.0588 90.8875 19.6033 89.7302 19.9993C88.6059 20.3624 87.4486 20.5439 86.2582 20.5439C84.2081 20.5439 82.6705 20.1149 81.6455 19.2568C80.823 18.5418 80.3305 17.5188 80.1679 16.1876H99.898C100.063 15.4945 100.196 14.785 100.295 14.0589C100.394 13.3329 100.444 12.5738 100.444 11.7818C100.444 9.8882 100.087 8.18858 99.3746 6.68295L91.6149 5.64338L97.2322 3.61111C96.3922 2.76883 95.396 2.06016 94.2437 1.4851C92.2928 0.495033 89.9451 0 87.2006 0C83.9601 0 81.1164 0.676545 78.6695 2.02963C76.2226 3.38273 74.3213 5.23085 72.9656 7.57401C71.6099 9.88417 70.932 12.5243 70.932 15.4945C70.932 17.9697 71.5272 20.1314 72.7176 21.9795C73.908 23.7946 75.5613 25.2137 77.6775 26.2368ZM80.7002 11.2373C80.7329 11.1376 80.7669 11.0386 80.8023 10.9402C81.2983 9.62014 82.0257 8.58058 82.9846 7.82153C83.9766 7.06248 85.2331 6.68295 86.7542 6.68295C87.9446 6.68295 88.9366 6.93047 89.7302 7.4255C90.5568 7.88753 91.1355 8.56408 91.4661 9.45514C91.685 9.97149 91.7901 10.5655 91.7815 11.2373H80.7002Z" fill="black"/>
    <path fill-rule="evenodd" clip-rule="evenodd" d="M129.241 9.28189H107.066V1.52588e-05H129.241C137.354 1.52588e-05 143.931 6.56403 143.931 14.6612C143.931 22.0406 138.468 28.1467 131.359 29.1711L147.565 45.4597L140.966 52L134.459 45.4597L109.168 20.0404H129.241C132.218 20.0404 134.631 17.632 134.631 14.6612C134.631 11.6903 132.218 9.28189 129.241 9.28189Z" fill="#89C527"/>
    <path d="M11 48.9109L12.7091 40H14.0032L16.4937 46.5304L15.8222 46.5177L20.6933 40H22.0606L20.3514 48.9109H18.8498L20.0829 42.4187L20.4369 42.4314L16.3105 47.8925H15.6025L13.4416 42.4187L13.7468 42.4569L12.5138 48.9109H11Z" fill="#848484"/>
    <path d="M25.7362 49C25.1014 49 24.5438 48.8769 24.0637 48.6308C23.5916 48.3762 23.2254 48.0283 22.9649 47.587C22.7045 47.1372 22.5743 46.611 22.5743 46.0085C22.5743 45.2447 22.7411 44.5658 23.0748 43.9717C23.4085 43.3692 23.8643 42.8982 24.4421 42.5587C25.0281 42.2107 25.6955 42.0368 26.4443 42.0368C27.0872 42.0368 27.6447 42.1598 28.1168 42.4059C28.597 42.6436 28.9673 42.9873 29.2277 43.4371C29.4881 43.8784 29.6184 44.4045 29.6184 45.0156C29.6184 45.7709 29.4515 46.4498 29.1178 47.0523C28.7841 47.6549 28.3243 48.1301 27.7383 48.4781C27.1605 48.826 26.4931 49 25.7362 49ZM25.8338 47.6379C26.2733 47.6379 26.6599 47.5318 26.9936 47.3197C27.3273 47.099 27.5918 46.7977 27.7871 46.4158C27.9825 46.0339 28.0801 45.5926 28.0801 45.0919C28.0801 44.5658 27.9296 44.1499 27.6284 43.8444C27.3273 43.5389 26.9041 43.3861 26.3588 43.3861C25.9274 43.3861 25.5408 43.4965 25.199 43.7171C24.8653 43.9293 24.6008 44.2263 24.4055 44.6082C24.2102 44.9901 24.1125 45.4314 24.1125 45.9321C24.1125 46.4668 24.2631 46.8868 24.5642 47.1924C24.8653 47.4894 25.2885 47.6379 25.8338 47.6379Z" fill="#848484"/>
    <path d="M31.9487 48.9109L30.4471 42.1132H31.9487L33.2428 48.1089H32.4736L36.075 42.1132H37.6133L33.5235 48.9109H31.9487Z" fill="#848484"/>
    <path d="M40.3537 49C39.7026 49 39.137 48.8769 38.6568 48.6308C38.1766 48.3762 37.8022 48.0283 37.5336 47.587C37.2732 47.1372 37.143 46.611 37.143 46.0085C37.143 45.2362 37.3057 44.553 37.6313 43.959C37.9568 43.3649 38.4004 42.8982 38.962 42.5587C39.5317 42.2107 40.1787 42.0368 40.9031 42.0368C41.5135 42.0368 42.0425 42.1556 42.4901 42.3932C42.9378 42.6308 43.2837 42.9745 43.5278 43.4243C43.7801 43.8656 43.9063 44.396 43.9063 45.0156C43.9063 45.1768 43.8981 45.3423 43.8819 45.512C43.8656 45.6818 43.8412 45.8388 43.8086 45.983H38.2783L38.4492 44.9264H43.0883L42.4657 45.2829C42.5308 44.8501 42.5023 44.4894 42.3803 44.2008C42.2582 43.9123 42.0629 43.6917 41.7943 43.5389C41.5257 43.3861 41.2042 43.3098 40.8298 43.3098C40.3822 43.3098 39.9915 43.4201 39.6578 43.6407C39.3323 43.8529 39.08 44.1584 38.9009 44.5573C38.7219 44.9477 38.6324 45.4059 38.6324 45.9321C38.6324 46.4837 38.7829 46.9081 39.0841 47.2051C39.3933 47.5021 39.8695 47.6506 40.5124 47.6506C40.8787 47.6506 41.2286 47.5912 41.5623 47.4724C41.896 47.3451 42.1727 47.1711 42.3925 46.9505L43.0273 48.058C42.6855 48.372 42.2785 48.6096 41.8065 48.7709C41.3426 48.9236 40.8583 49 40.3537 49Z" fill="#848484"/>
    <path d="M50.456 49C50.0328 49 49.6666 48.9066 49.3573 48.7199C49.0562 48.5248 48.8364 48.2532 48.6981 47.9052C48.5678 47.5488 48.5475 47.1287 48.637 46.645L49.7968 40.611H51.3228L50.163 46.6322C50.1142 46.9463 50.1468 47.2008 50.2607 47.396C50.3747 47.5912 50.5903 47.6888 50.9077 47.6888C51.0542 47.6888 51.2007 47.6676 51.3472 47.6252C51.5019 47.5743 51.6402 47.5064 51.7623 47.4215L52.0309 48.5926C51.803 48.7454 51.5507 48.8515 51.274 48.9109C50.9973 48.9703 50.7246 49 50.456 49ZM48.1975 43.4371L48.4417 42.1641H52.7756L52.5314 43.4371H48.1975Z" fill="#848484"/>
    <path d="M56.1969 49C55.5621 49 55.0046 48.8769 54.5244 48.6308C54.0524 48.3762 53.6861 48.0283 53.4257 47.587C53.1652 47.1372 53.035 46.611 53.035 46.0085C53.035 45.2447 53.2019 44.5658 53.5355 43.9717C53.8692 43.3692 54.325 42.8982 54.9029 42.5587C55.4888 42.2107 56.1562 42.0368 56.905 42.0368C57.548 42.0368 58.1055 42.1598 58.5775 42.4059C59.0577 42.6436 59.428 42.9873 59.6884 43.4371C59.9489 43.8784 60.0791 44.4045 60.0791 45.0156C60.0791 45.7709 59.9123 46.4498 59.5786 47.0523C59.2449 47.6549 58.785 48.1301 58.1991 48.4781C57.6212 48.826 56.9538 49 56.1969 49ZM56.2946 47.6379C56.7341 47.6379 57.1207 47.5318 57.4544 47.3197C57.788 47.099 58.0526 46.7977 58.2479 46.4158C58.4432 46.0339 58.5409 45.5926 58.5409 45.0919C58.5409 44.5658 58.3903 44.1499 58.0892 43.8444C57.788 43.5389 57.3648 43.3861 56.8195 43.3861C56.3882 43.3861 56.0016 43.4965 55.6598 43.7171C55.3261 43.9293 55.0616 44.2263 54.8662 44.6082C54.6709 44.9901 54.5732 45.4314 54.5732 45.9321C54.5732 46.4668 54.7238 46.8868 55.0249 47.1924C55.3261 47.4894 55.7493 47.6379 56.2946 47.6379Z" fill="#848484"/>
    <path d="M66.8168 43.7044H71.0774L70.821 45.0665H66.5604L66.8168 43.7044ZM66.2064 47.5233H71.0408L70.7722 48.9109H64.3629L66.0721 40H72.3104L72.0418 41.3876H67.3783L66.2064 47.5233Z" fill="#848484"/>
    <path d="M75.2653 49C74.7363 49 74.252 48.8812 73.8125 48.6436C73.3811 48.4059 73.0352 48.0665 72.7748 47.6252C72.5225 47.1754 72.3964 46.6365 72.3964 46.0085C72.3964 45.4314 72.4859 44.901 72.6649 44.4173C72.8521 43.9335 73.1126 43.5134 73.4463 43.157C73.7799 42.8006 74.1665 42.5248 74.606 42.3296C75.0537 42.1344 75.542 42.0368 76.071 42.0368C76.6163 42.0368 77.0843 42.1386 77.4749 42.3423C77.8737 42.546 78.1749 42.8557 78.3783 43.2716C78.5818 43.6789 78.6754 44.1881 78.6591 44.7992C78.6429 45.6393 78.4964 46.3777 78.2196 47.0141C77.9429 47.6422 77.5563 48.1301 77.0599 48.4781C76.5634 48.826 75.9652 49 75.2653 49ZM75.6559 47.6379C76.0954 47.6379 76.482 47.5318 76.8157 47.3197C77.1494 47.099 77.4139 46.7977 77.6092 46.4158C77.8046 46.0339 77.9022 45.5926 77.9022 45.0919C77.9022 44.5658 77.7517 44.1499 77.4505 43.8444C77.1494 43.5389 76.7262 43.3861 76.1809 43.3861C75.7495 43.3861 75.3629 43.4965 75.0211 43.7171C74.6874 43.9293 74.4229 44.2263 74.2276 44.6082C74.0322 44.9901 73.9346 45.4314 73.9346 45.9321C73.9346 46.4583 74.0851 46.8741 74.3863 47.1796C74.6874 47.4851 75.1106 47.6379 75.6559 47.6379ZM77.2552 48.9109L77.5482 47.3579L77.9633 45.5502L78.1708 43.7298L78.476 42.1132H80.002L78.708 48.9109H77.2552Z" fill="#848484"/>
    <path d="M80.7046 48.9109L81.9986 42.1132H83.4514L83.0852 44.0481L82.9509 43.488C83.252 42.9364 83.6345 42.5587 84.0984 42.355C84.5623 42.1429 85.128 42.0368 85.7954 42.0368L85.5146 43.5516C85.4495 43.5347 85.3884 43.5262 85.3315 43.5262C85.2745 43.5177 85.2094 43.5134 85.1361 43.5134C84.542 43.5134 84.0496 43.6789 83.6589 44.0099C83.2683 44.3324 83.0078 44.8501 82.8776 45.5629L82.2306 48.9109H80.7046Z" fill="#848484"/>
    <path d="M90.6181 42.0368C91.1796 42.0368 91.6557 42.1556 92.0464 42.3932C92.4371 42.6308 92.7097 42.983 92.8644 43.4498C93.0271 43.9081 93.0434 44.4724 92.9132 45.1429L92.1929 48.9109H90.6669L91.375 45.181C91.4808 44.6294 91.4319 44.2008 91.2285 43.8953C91.025 43.5813 90.6547 43.4243 90.1175 43.4243C89.5559 43.4243 89.092 43.5856 88.7258 43.9081C88.3596 44.2306 88.1113 44.7228 87.9811 45.3847L87.2974 48.9109H85.7714L87.0655 42.1132H88.5183L88.152 44.0481L87.9078 43.4371C88.2171 42.9533 88.6037 42.6011 89.0676 42.3805C89.5397 42.1513 90.0565 42.0368 90.6181 42.0368Z" fill="#848484"/>
    <path fill-rule="evenodd" clip-rule="evenodd" d="M98.9522 42H104V47.0478H102.558V44.4621L98.0198 49L97 47.9802L101.538 43.4422H98.9522V42Z" fill="#848484"/>
</svg>